<mxfile host="Electron" agent="Mozilla/5.0 (X11; Linux x86_64) AppleWebKit/537.36 (KHTML, like Gecko) draw.io/27.0.9 Chrome/134.0.6998.205 Electron/35.4.0 Safari/537.36" version="27.0.9">
  <diagram name="Page-1" id="XNylRcHleWaF2bPoZkgR">
    <mxGraphModel dx="1426" dy="771" grid="1" gridSize="10" guides="1" tooltips="1" connect="1" arrows="1" fold="1" page="1" pageScale="1" pageWidth="850" pageHeight="1100" math="0" shadow="0">
      <root>
        <mxCell id="0" />
        <mxCell id="1" parent="0" />
        <mxCell id="-2a3rXynjPHE6B3oWx7t-1" value="Actor" style="shape=umlActor;verticalLabelPosition=bottom;verticalAlign=top;html=1;outlineConnect=0;" vertex="1" parent="1">
          <mxGeometry x="410" y="40" width="30" height="60" as="geometry" />
        </mxCell>
        <mxCell id="-2a3rXynjPHE6B3oWx7t-2" value="" style="outlineConnect=0;dashed=0;verticalLabelPosition=bottom;verticalAlign=top;align=center;html=1;shape=mxgraph.aws3.ec2;fillColor=#F58534;gradientColor=none;" vertex="1" parent="1">
          <mxGeometry x="387" y="264" width="76.5" height="93" as="geometry" />
        </mxCell>
        <mxCell id="-2a3rXynjPHE6B3oWx7t-3" value="" style="outlineConnect=0;dashed=0;verticalLabelPosition=bottom;verticalAlign=top;align=center;html=1;shape=mxgraph.aws3.s3;fillColor=#E05243;gradientColor=none;" vertex="1" parent="1">
          <mxGeometry x="50" y="420" width="76.5" height="93" as="geometry" />
        </mxCell>
        <mxCell id="-2a3rXynjPHE6B3oWx7t-4" value="" style="outlineConnect=0;dashed=0;verticalLabelPosition=bottom;verticalAlign=top;align=center;html=1;shape=mxgraph.aws3.ec2;fillColor=#F58534;gradientColor=none;" vertex="1" parent="1">
          <mxGeometry x="560" y="264" width="76.5" height="93" as="geometry" />
        </mxCell>
        <mxCell id="-2a3rXynjPHE6B3oWx7t-5" value="" style="outlineConnect=0;dashed=0;verticalLabelPosition=bottom;verticalAlign=top;align=center;html=1;shape=mxgraph.aws3.ec2;fillColor=#F58534;gradientColor=none;" vertex="1" parent="1">
          <mxGeometry x="387" y="480" width="76.5" height="93" as="geometry" />
        </mxCell>
        <mxCell id="-2a3rXynjPHE6B3oWx7t-6" value="" style="outlineConnect=0;dashed=0;verticalLabelPosition=bottom;verticalAlign=top;align=center;html=1;shape=mxgraph.aws3.dynamo_db;fillColor=#2E73B8;gradientColor=none;" vertex="1" parent="1">
          <mxGeometry x="720" y="270" width="72" height="81" as="geometry" />
        </mxCell>
        <mxCell id="-2a3rXynjPHE6B3oWx7t-7" value="" style="outlineConnect=0;dashed=0;verticalLabelPosition=bottom;verticalAlign=top;align=center;html=1;shape=mxgraph.aws3.s3;fillColor=#E05243;gradientColor=none;" vertex="1" parent="1">
          <mxGeometry x="717.75" y="457" width="76.5" height="93" as="geometry" />
        </mxCell>
        <mxCell id="-2a3rXynjPHE6B3oWx7t-8" style="edgeStyle=orthogonalEdgeStyle;rounded=0;orthogonalLoop=1;jettySize=auto;html=1;exitX=0;exitY=1;exitDx=0;exitDy=0;exitPerimeter=0;entryX=0.5;entryY=0;entryDx=0;entryDy=0;entryPerimeter=0;" edge="1" parent="1" source="-2a3rXynjPHE6B3oWx7t-1" target="-2a3rXynjPHE6B3oWx7t-2">
          <mxGeometry relative="1" as="geometry" />
        </mxCell>
        <mxCell id="-2a3rXynjPHE6B3oWx7t-10" value="&lt;font style=&quot;font-size: 16px;&quot;&gt;Orchastrator&lt;/font&gt;" style="text;html=1;align=center;verticalAlign=middle;resizable=0;points=[];autosize=1;strokeColor=none;fillColor=none;" vertex="1" parent="1">
          <mxGeometry x="277" y="260" width="110" height="30" as="geometry" />
        </mxCell>
        <mxCell id="-2a3rXynjPHE6B3oWx7t-11" value="&lt;font style=&quot;font-size: 16px;&quot;&gt;Filter Manager&lt;/font&gt;" style="text;html=1;align=center;verticalAlign=middle;resizable=0;points=[];autosize=1;strokeColor=none;fillColor=none;" vertex="1" parent="1">
          <mxGeometry x="533.25" y="234" width="130" height="30" as="geometry" />
        </mxCell>
        <mxCell id="-2a3rXynjPHE6B3oWx7t-12" value="&lt;font style=&quot;font-size: 16px;&quot;&gt;Filters Metadata&lt;/font&gt;" style="text;html=1;align=center;verticalAlign=middle;resizable=0;points=[];autosize=1;strokeColor=none;fillColor=none;" vertex="1" parent="1">
          <mxGeometry x="686" y="230" width="140" height="30" as="geometry" />
        </mxCell>
        <mxCell id="-2a3rXynjPHE6B3oWx7t-13" value="&lt;font style=&quot;font-size: 16px;&quot;&gt;Filter Storage&lt;/font&gt;" style="text;html=1;align=center;verticalAlign=middle;resizable=0;points=[];autosize=1;strokeColor=none;fillColor=none;" vertex="1" parent="1">
          <mxGeometry x="696" y="573" width="120" height="30" as="geometry" />
        </mxCell>
        <mxCell id="-2a3rXynjPHE6B3oWx7t-14" value="&lt;font style=&quot;font-size: 16px;&quot;&gt;Image Storage&lt;/font&gt;" style="text;html=1;align=center;verticalAlign=middle;resizable=0;points=[];autosize=1;strokeColor=none;fillColor=none;" vertex="1" parent="1">
          <mxGeometry x="23.25" y="520" width="130" height="30" as="geometry" />
        </mxCell>
        <mxCell id="-2a3rXynjPHE6B3oWx7t-15" value="&lt;font style=&quot;font-size: 16px;&quot;&gt;Image Processor&lt;/font&gt;" style="text;html=1;align=center;verticalAlign=middle;resizable=0;points=[];autosize=1;strokeColor=none;fillColor=none;" vertex="1" parent="1">
          <mxGeometry x="355.25" y="590" width="140" height="30" as="geometry" />
        </mxCell>
        <mxCell id="-2a3rXynjPHE6B3oWx7t-16" style="edgeStyle=orthogonalEdgeStyle;rounded=0;orthogonalLoop=1;jettySize=auto;html=1;exitX=0;exitY=0.5;exitDx=0;exitDy=0;exitPerimeter=0;entryX=1;entryY=0.5;entryDx=0;entryDy=0;entryPerimeter=0;" edge="1" parent="1" source="-2a3rXynjPHE6B3oWx7t-2" target="-2a3rXynjPHE6B3oWx7t-23">
          <mxGeometry relative="1" as="geometry" />
        </mxCell>
        <mxCell id="-2a3rXynjPHE6B3oWx7t-17" style="edgeStyle=orthogonalEdgeStyle;rounded=0;orthogonalLoop=1;jettySize=auto;html=1;exitX=0.5;exitY=1;exitDx=0;exitDy=0;exitPerimeter=0;entryX=0.5;entryY=0;entryDx=0;entryDy=0;entryPerimeter=0;" edge="1" parent="1" source="-2a3rXynjPHE6B3oWx7t-2" target="-2a3rXynjPHE6B3oWx7t-5">
          <mxGeometry relative="1" as="geometry" />
        </mxCell>
        <mxCell id="-2a3rXynjPHE6B3oWx7t-18" style="edgeStyle=orthogonalEdgeStyle;rounded=0;orthogonalLoop=1;jettySize=auto;html=1;exitX=1;exitY=0.5;exitDx=0;exitDy=0;exitPerimeter=0;entryX=0;entryY=0.5;entryDx=0;entryDy=0;entryPerimeter=0;" edge="1" parent="1" source="-2a3rXynjPHE6B3oWx7t-2" target="-2a3rXynjPHE6B3oWx7t-4">
          <mxGeometry relative="1" as="geometry" />
        </mxCell>
        <mxCell id="-2a3rXynjPHE6B3oWx7t-19" style="edgeStyle=orthogonalEdgeStyle;rounded=0;orthogonalLoop=1;jettySize=auto;html=1;exitX=1;exitY=0.5;exitDx=0;exitDy=0;exitPerimeter=0;entryX=0;entryY=0.5;entryDx=0;entryDy=0;entryPerimeter=0;" edge="1" parent="1" source="-2a3rXynjPHE6B3oWx7t-4" target="-2a3rXynjPHE6B3oWx7t-6">
          <mxGeometry relative="1" as="geometry" />
        </mxCell>
        <mxCell id="-2a3rXynjPHE6B3oWx7t-20" style="edgeStyle=orthogonalEdgeStyle;rounded=0;orthogonalLoop=1;jettySize=auto;html=1;exitX=0.5;exitY=1;exitDx=0;exitDy=0;exitPerimeter=0;entryX=0;entryY=0.5;entryDx=0;entryDy=0;entryPerimeter=0;" edge="1" parent="1" source="-2a3rXynjPHE6B3oWx7t-4" target="-2a3rXynjPHE6B3oWx7t-7">
          <mxGeometry relative="1" as="geometry" />
        </mxCell>
        <mxCell id="-2a3rXynjPHE6B3oWx7t-23" value="" style="outlineConnect=0;dashed=0;verticalLabelPosition=bottom;verticalAlign=top;align=center;html=1;shape=mxgraph.aws3.ec2;fillColor=#F58534;gradientColor=none;" vertex="1" parent="1">
          <mxGeometry x="176.5" y="264" width="76.5" height="93" as="geometry" />
        </mxCell>
        <mxCell id="-2a3rXynjPHE6B3oWx7t-24" style="edgeStyle=orthogonalEdgeStyle;rounded=0;orthogonalLoop=1;jettySize=auto;html=1;exitX=0.5;exitY=1;exitDx=0;exitDy=0;exitPerimeter=0;entryX=1;entryY=0.5;entryDx=0;entryDy=0;entryPerimeter=0;" edge="1" parent="1" source="-2a3rXynjPHE6B3oWx7t-23" target="-2a3rXynjPHE6B3oWx7t-3">
          <mxGeometry relative="1" as="geometry" />
        </mxCell>
        <mxCell id="-2a3rXynjPHE6B3oWx7t-25" value="&lt;font style=&quot;font-size: 16px;&quot;&gt;Image Manager&lt;/font&gt;" style="text;html=1;align=center;verticalAlign=middle;resizable=0;points=[];autosize=1;strokeColor=none;fillColor=none;" vertex="1" parent="1">
          <mxGeometry x="142" y="220" width="140" height="30" as="geometry" />
        </mxCell>
      </root>
    </mxGraphModel>
  </diagram>
</mxfile>
